<svg id="Capa_1" data-name="Capa 1" xmlns="http://www.w3.org/2000/svg" viewBox="0 0 1200 1200"><defs><style>.cls-1{fill:#0093ed;}</style></defs><path class="cls-1" d="M458.69,671.18c3.49-.52,6.8-1,10.1-1.54a1.47,1.47,0,0,0,.86-1.06,92.94,92.94,0,0,0,.81-9.55c0-10.2.12-20.4-.24-30.59a151.77,151.77,0,0,0-7.78-41.66,164.6,164.6,0,0,0-42.37-67.7c-2.45-2.38-2.44-2.37-5.37-.72-4.3,2.44-8.5,5.08-13.39,6.29a23.48,23.48,0,0,1-11.24.15,13.38,13.38,0,0,1-6-3.1,103.65,103.65,0,0,0-50.68-25,145.08,145.08,0,0,0-55.45-.21c-15.48,3-29.93,8.52-42.71,17.95a63.44,63.44,0,0,0-6.54,5.34c-5.61,5.42-12.22,6.54-19.56,4.9a27.32,27.32,0,0,1-13.35-7c-.59-.57-1.23-1.1-2-1.76-.9.76-1.81,1.45-2.63,2.24a164.56,164.56,0,0,0-44.31,71.65,158.89,158.89,0,0,0-7.1,47.49c0,8.06,0,16.12.07,24.19a67.66,67.66,0,0,0,.54,6.81,1.47,1.47,0,0,0,.88,1c3.51.72,7,1.36,10.59,2,0-1.48-.1-2.89,0-4.27a12.44,12.44,0,0,1,9.11-11.4,12.28,12.28,0,0,1,13.72,4.59,134.13,134.13,0,0,1,7.13,11.49q28.75,49.72,57.46,99.48c2.34,4.07,3.31,8.27,1.3,12.77A12.89,12.89,0,0,1,222,789.69c-.74-.46-1.47-.94-2.39-1.52-.34,1-.69,1.84-1,2.73-1.56,5.05-3.83,9.61-8.06,13.05A23.9,23.9,0,0,1,175,797.11q-18.63-32.37-37.32-64.7c-5.17-8.95-10.41-17.87-15.57-26.82-6.45-11.2-3.3-25.11,7-31.9a1.64,1.64,0,0,0,1-1.74A255,255,0,0,1,128.9,636a192.51,192.51,0,0,1,5.34-40.78A176.05,176.05,0,0,1,282.81,463.3a172.61,172.61,0,0,1,45.75.21c36.35,5,68.22,19.8,95.34,44.5,24.83,22.62,41.66,50.28,50.87,82.59a175.12,175.12,0,0,1,6.49,50.08c-.08,7.09-.06,14.19-.22,21.28-.06,2.85-.46,5.7-.79,8.54-.17,1.52,0,2.78,1.44,3.65,10.09,6,13,21,7,30.91-6.2,10.31-12.07,20.83-18.08,31.25q-17.07,29.58-34.11,59.15c-3.75,6.52-8.77,11.3-16.32,13a23.48,23.48,0,0,1-28-16.37,38,38,0,0,1-.75-4.28,11.79,11.79,0,0,0-2,1,12.56,12.56,0,0,1-15.75,0c-4.68-3.77-6.31-10.3-3.53-15.48,3.32-6.19,6.91-12.25,10.42-18.35Q401.74,718.4,423,681.72c3.86-6.69,7.64-13.42,11.6-20a13,13,0,0,1,22.7.39c.91,1.66,1.06,3.76,1.41,5.69A21.34,21.34,0,0,1,458.69,671.18Z"/><path class="cls-1" d="M970.06,730.42H925.82c0-.74,0-1.35,0-2,0-16.76.08-33.53.07-50.3,0-35-.14-70.07,0-105.11.07-23.57,8.44-43.76,26-59.67,15.1-13.69,33-20.8,53.48-19.12,26.23,2.15,44.87,15.85,55.72,39.84,5,11.13,5.69,23,5,35a63.67,63.67,0,0,1-11,33.11,56.65,56.65,0,0,1-64.35,22c-8.44-2.65-16.06.49-19.33,8.18a15.67,15.67,0,0,0-1.17,5.86q-.11,38.3,0,76.59c0,4.6,0,9.19,0,13.79C970.16,729.23,970.1,729.79,970.06,730.42Zm71.42-169.09a39.86,39.86,0,0,0-4.41-17.37c-1.33-2.6-3.67-3.82-6.16-3.28-3.87.83-5.57,4.6-3.8,8.35,3.89,8.28,4.69,16.46-.38,24.67a6.6,6.6,0,0,0-.46,4.47,4.93,4.93,0,0,0,4.65,3.81,5.49,5.49,0,0,0,5.42-2.75A31.59,31.59,0,0,0,1041.48,561.33Z"/><path class="cls-1" d="M874.73,730.43H830.6c0-.51-.07-1-.07-1.47,0-29.94-.26-59.88,0-89.81.08-9.49-8.53-18.82-20.57-14.95a55.09,55.09,0,0,1-36.36-.42c-16.69-6-28.24-17.59-34.58-34A74.75,74.75,0,0,1,737.45,540c6.08-19.91,19.26-33.89,38.63-41.54,18.48-7.29,36.85-5.83,54.57,2.73,19.85,9.59,33,25.16,40,46A85.7,85.7,0,0,1,874.75,575q-.07,51.24,0,102.48,0,25.14,0,50.28ZM757.91,561.28c0,7.07,1.69,13.19,5.43,18.67,2.3,3.37,6.17,4.24,9.41,2.18s4-6.06,1.93-9.62a22.56,22.56,0,0,1-1.82-3.52c-2.56-6.71-1.3-13.12,1.66-19.37,1.84-3.89.71-7.75-2.83-9.52s-7.44-.35-9.33,3.46A41.64,41.64,0,0,0,757.91,561.28Z"/><path class="cls-1" d="M970,740.83a3.69,3.69,0,0,1,.15.75c0,5.61.14,11.23-.11,16.82a18.69,18.69,0,0,1-15.61,17.69c-.87.16-2.08.53-2.41,1.17-.76,1.51-1.21,3.36,0,4.84,6.86,8.16,5.18,17.29,3,26.4-.73,3-4,4.46-7,3.67s-4.74-3.74-4.13-7.08c.42-2.35.92-4.7,1.15-7.07.32-3.37,0-6.46-2.56-9.27-2.69-3-3.09-6.93-2.65-10.89.06-.56.15-1.12.22-1.68,0-.06,0-.12-.09-.33-.3-.13-.68-.31-1.08-.45-7.81-2.77-12.7-9.16-13-17.48-.2-5.41,0-10.83,0-16.25a6.32,6.32,0,0,1,.15-.84Z"/><path class="cls-1" d="M860.54,775.85c.12,1.41.33,2.78.34,4.15,0,3.37-.73,6.63-3,9.13a9.7,9.7,0,0,0-2.43,7.66,51.93,51.93,0,0,0,1.12,7.64c.84,3.78-.7,6.94-4,7.76s-6.35-1.06-7.29-4.81c-1.4-5.61-2.11-11.26-.9-17a16,16,0,0,1,3.76-7.71,5.14,5.14,0,0,0,.42-5.8,2.19,2.19,0,0,0-1.41-.67,18.91,18.91,0,0,1-16.66-18.93c0-5.41,0-10.82,0-16.39h44.19c0,.67.1,1.34.1,2q0,6.9,0,13.81c0,9.13-4.64,15.68-13.27,18.8C861.16,775.57,860.88,775.71,860.54,775.85Z"/></svg>