<svg id="Capa_1" data-name="Capa 1" xmlns="http://www.w3.org/2000/svg" viewBox="0 0 1026.66 264.21"><defs><style>.cls-1{fill:#348bcb;}</style></defs><path class="cls-1" d="M228.39,271.31c-6.3,0-12.69.7-18.88-.13-17.12-2.29-29.64-11.69-35.89-27.69-6.47-16.55-4.1-32.51,7.63-46.36,7.71-9.1,11.59-19.26,11.35-31.27a43.79,43.79,0,0,0-44.32-42.7c-24.62.1-43.51,18.78-44.17,42.77-.37,13.24,5.13,23.47,12.81,33.56C133.24,221,128.56,252,105.33,264.43c-22.73,12.13-48.13,12.27-71,.68C9.23,252.35,1.71,217.28,17,191c26.27-45.07,53.35-89.66,80.11-134.45,4.3-7.2,8.53-14.46,13.05-21.53,19-29.72,57-30.64,75.63-.68,27.74,44.51,54.08,89.89,81,134.91,4,6.68,8.1,13.3,12,20,15.94,27.25,8.22,61.4-17.3,76.71C254.06,270.5,247.07,271.7,228.39,271.31Z" transform="translate(-9.11 -12.01)"/><path class="cls-1" d="M548,104.62c0,23.13.74,46.28-.14,69.37-2.13,55.72-41.24,96.25-96.89,101.36-34,3.13-66.11-1.54-92.94-24.76-23-19.88-33.22-46.33-33.83-75.87-1-48-.42-96.11-.35-144.17,0-11.72,6.26-17.58,18.62-18.42a50,50,0,0,1,53.77,49.61c.24,34.84-.12,69.69.17,104.53.14,16.46,4.72,31.06,21.46,38.35,28.75,12.53,56.95-5.37,57.46-37,.55-34.23.1-68.48.18-102.72.08-30.22,18.87-50.4,48.85-52.65,16.68-1.25,24,5.42,24.06,22.08.07,23.43,0,46.85,0,70.28Z" transform="translate(-9.11 -12.01)"/><path class="cls-1" d="M666.83,12.68c15.75.51,35.92-1.29,56,1,32.63,3.79,57.89,19.1,69.58,50.63,12,32.41,9.28,63.8-14,91.3-5.47,6.46-12.61,11-19.93,15.28-10,5.8-11.28,10.63-5.29,20.4Q771.49,221.24,790,251c3.23,5.21,6.22,10.45,2.65,16.68s-9.5,6.6-15.7,6.46c-5.1-.12-10.21-.22-15.32-.09-13.89.36-24.18-5.67-31.41-17.35-12.78-20.65-25.71-41.22-38.37-61.94-7.18-11.74-26.69-17.91-39-11.78-5.7,2.84-7.68,7.69-7.61,14.06.22,20.12.09,40.24,0,60.36-.06,13.1-3.25,16.23-16.54,16.55-22.39.55-37.69-6.71-39.83-23.94-3.87-31.17-5.13-63,.84-94,4-20.74,24.4-33.62,46.75-33.95,18.92-.27,37.85-.12,56.77,0a45.46,45.46,0,0,0,14.22-1.9c10.1-3.26,15-10,15.12-20.82.22-13.29-4-20.19-14.39-24.12-6.94-2.61-14.16-2.17-21.32-2.36-21.3-.57-42.68,1.43-63.91-1-18.88-2.15-34.2-18.62-35.76-37.34C586,19.88,591.93,13,606.6,12.74,625.22,12.47,643.85,12.68,666.83,12.68Z" transform="translate(-9.11 -12.01)"/><path class="cls-1" d="M938.89,81.12c-22.51,0-45,.12-67.54,0-17.46-.13-29.91-12.47-29.83-29.18s12.77-29.06,30.05-29.09q67.09-.11,134.19,0c16.71,0,29.53,12.37,29.89,28.38C1036,68.07,1024,80.71,1006.44,81c-22.51.35-45,.09-67.55.09Z" transform="translate(-9.11 -12.01)"/><path class="cls-1" d="M939,215.43c21.91,0,43.83-.08,65.74,0,18.25.1,30.82,12,31,29.09.19,16.49-13.08,29-31,29.05q-66.65.11-133.29,0c-17.51,0-30-12.33-29.92-29.12.09-17,12.26-29,29.94-29.05C894,215.33,916.49,215.42,939,215.43Z" transform="translate(-9.11 -12.01)"/><path class="cls-1" d="M912.12,177.9c-12.9,0-25.8.2-38.69,0-18.66-.34-31.32-11.78-31.88-28.42-.57-17,11.73-30.29,30.55-30.79q40.46-1.06,81,0c18,.42,31,13.79,30.86,29.87-.16,16.59-13.73,29.09-32.22,29.36C938.51,178,925.31,177.89,912.12,177.9Z" transform="translate(-9.11 -12.01)"/><path class="cls-1" d="M148.25,194a26.08,26.08,0,1,1,26.22-26.5C174.73,181.57,162.43,194,148.25,194Z" transform="translate(-9.11 -12.01)"/></svg>